<svg viewBox="0 0 20 20" fill="none" xmlns="http://www.w3.org/2000/svg">
    <path
        d="M10.8602 14.3933L7.14015 10.6667C7.01598 10.5418 6.94629 10.3728 6.94629 10.1967C6.94629 10.0205 7.01598 9.85158 7.14015 9.72667L10.8602 6.00001C10.9534 5.90599 11.0725 5.84187 11.2024 5.81582C11.3322 5.78977 11.4668 5.80298 11.5891 5.85376C11.7114 5.90454 11.8158 5.99058 11.889 6.10093C11.9622 6.21128 12.0009 6.34092 12.0002 6.47334V13.92C12.0009 14.0524 11.9622 14.1821 11.889 14.2924C11.8158 14.4028 11.7114 14.4888 11.5891 14.5396C11.4668 14.5904 11.3322 14.6036 11.2024 14.5775C11.0725 14.5515 10.9534 14.4874 10.8602 14.3933Z"
        fill="currentColor" />
</svg>