<svg viewBox="0 0 20 20" fill="none" xmlns="http://www.w3.org/2000/svg">
    <g clip-path="url(#clip0_584_1627)">
        <path
            d="M17.5112 8.27177C16.9096 7.2866 16.1507 6.40662 15.2647 5.66674L17.1307 3.80077C17.3864 3.53603 17.379 3.11415 17.1143 2.85847C16.856 2.60903 16.4466 2.60903 16.1883 2.85847L14.1591 4.89037C12.9012 4.14321 11.463 3.75376 9.99998 3.76413C5.87417 3.76413 3.52304 6.58843 2.48877 8.2718C1.83708 9.32588 1.83708 10.6578 2.48877 11.7119C3.09039 12.697 3.84927 13.577 4.73528 14.3169L2.86932 16.1829C2.60457 16.4385 2.59723 16.8605 2.85292 17.1252C3.1086 17.3899 3.53051 17.3973 3.79522 17.1416C3.80078 17.1362 3.80625 17.1307 3.81162 17.1252L5.84553 15.0913C7.1019 15.8383 8.53831 16.2284 9.99998 16.2195C14.1258 16.2195 16.4769 13.3952 17.5112 11.7118C18.1629 10.6578 18.1629 9.32588 17.5112 8.27177ZM6.0015 9.99182C5.99772 7.78717 7.78184 5.99689 9.98649 5.99311C10.8206 5.99168 11.6343 6.25161 12.3132 6.73637L11.3455 7.70401C10.9393 7.45904 10.4744 7.32846 10 7.32615C8.52781 7.32615 7.33435 8.51961 7.33435 9.99182C7.33666 10.4662 7.46724 10.9311 7.71221 11.3373L6.74457 12.305C6.26137 11.6304 6.00153 10.8215 6.0015 9.99182ZM10 13.9903C9.17029 13.9903 8.3614 13.7305 7.68687 13.2473L8.65451 12.2796C9.06074 12.5246 9.52566 12.6552 10 12.6575C11.4722 12.6575 12.6657 11.464 12.6657 9.99182C12.6634 9.51746 12.5328 9.05254 12.2878 8.64632L13.2555 7.67868C14.5366 9.47282 14.1208 11.9659 12.3267 13.2471C11.6478 13.7318 10.8342 13.9918 10 13.9903Z"
            fill="currentColor" />
    </g>
    <defs>
        <clipPath id="clip0_584_1627">
            <rect width="16" height="16" fill="white" transform="translate(2 2)" />
        </clipPath>
    </defs>
</svg>