<svg viewBox="0 0 20 20" fill="none" xmlns="http://www.w3.org/2000/svg">
    <g clip-path="url(#clip0_937_7179)">
        <path
            d="M17.8045 16.8623L13.8252 12.883C14.9096 11.5567 15.4428 9.8644 15.3144 8.15605C15.1861 6.4477 14.406 4.85403 13.1356 3.70469C11.8652 2.55535 10.2016 1.93827 8.48895 1.98109C6.77632 2.02391 5.14566 2.72336 3.93426 3.93475C2.72287 5.14614 2.02343 6.7768 1.9806 8.48944C1.93778 10.2021 2.55486 11.8656 3.7042 13.1361C4.85354 14.4065 6.44721 15.1865 8.15556 15.3149C9.86392 15.4433 11.5563 14.9101 12.8825 13.8257L16.8619 17.805C16.9876 17.9264 17.156 17.9936 17.3308 17.9921C17.5056 17.9906 17.6728 17.9205 17.7964 17.7969C17.92 17.6733 17.9901 17.5061 17.9916 17.3313C17.9932 17.1565 17.926 16.9881 17.8045 16.8623ZM8.66652 14.0003C7.61169 14.0003 6.58054 13.6875 5.70348 13.1015C4.82642 12.5155 4.14283 11.6825 3.73916 10.708C3.3355 9.73345 3.22988 8.66109 3.43567 7.62653C3.64145 6.59196 4.14941 5.64165 4.89529 4.89577C5.64117 4.14989 6.59147 3.64194 7.62604 3.43615C8.6606 3.23037 9.73296 3.33598 10.7075 3.73965C11.682 4.14332 12.515 4.82691 13.101 5.70397C13.6871 6.58103 13.9999 7.61218 13.9999 8.66701C13.9983 10.081 13.4359 11.4366 12.436 12.4365C11.4362 13.4363 10.0805 13.9988 8.66652 14.0003Z"
            fill="currentColor" />
    </g>
    <defs>
        <clipPath id="clip0_937_7179">
            <rect width="16" height="16" fill="white" transform="translate(2 2)" />
        </clipPath>
    </defs>
</svg>