<svg version="1.1" id="Layer_1" xmlns="http://www.w3.org/2000/svg" xmlns:xlink="http://www.w3.org/1999/xlink" x="0px" y="0px"
	 width="100%" viewBox="0 0 229 127" enable-background="new 0 0 229 127" xml:space="preserve">
<path fill="#FEFEFE" opacity="1.000000" stroke="none" 
	d="
M173.000000,128.000000 
	C115.333336,128.000000 58.166672,128.000000 1.000008,128.000000 
	C1.000005,85.666672 1.000005,43.333344 1.000003,1.000013 
	C77.333321,1.000009 153.666641,1.000009 229.999969,1.000005 
	C229.999985,43.333321 229.999985,85.666641 230.000000,127.999985 
	C211.166672,128.000000 192.333328,128.000000 173.000000,128.000000 
M47.169815,98.889557 
	C46.212917,104.500198 50.154800,102.715492 53.506710,102.633865 
	C53.467335,101.934830 53.427959,101.235786 53.391159,99.657455 
	C53.434166,88.139626 53.477173,76.621788 53.827419,64.233948 
	C53.827419,62.623814 53.827419,61.013676 53.827419,59.218491 
	C50.621937,59.218491 47.639347,59.218491 44.519928,59.218491 
	C45.487514,61.752850 46.304161,63.891857 47.081333,66.963188 
	C47.186390,76.949730 47.291451,86.936264 47.217270,97.489548 
	C47.258373,97.683380 47.299473,97.877213 47.169815,98.889557 
M27.401026,79.204742 
	C24.663124,79.204742 21.925224,79.204742 18.802681,79.204742 
	C19.278584,73.302124 19.683485,68.280121 20.091068,63.224865 
	C16.704088,63.224865 13.999965,63.224865 11.475269,63.224865 
	C11.475269,76.573013 11.475269,89.465042 11.475269,102.609055 
	C14.474469,102.609055 17.399710,102.609055 20.445705,102.609055 
	C19.917646,96.780670 19.406286,91.136581 18.884113,85.373138 
	C23.635597,85.373138 27.546343,85.373138 32.209385,85.373138 
	C31.609428,91.287132 31.050608,96.795624 30.463146,102.586426 
	C33.580986,102.586426 36.492081,102.586426 38.954594,102.586426 
	C38.954594,95.914032 38.954594,89.503326 38.954594,83.092613 
	C38.954594,76.513802 38.954594,69.934990 38.954594,63.207275 
	C36.560596,63.207275 33.859097,63.207275 31.025606,63.207275 
	C31.361979,67.612236 31.581568,71.582878 31.994846,75.533264 
	C32.293991,78.392685 31.171593,79.568840 27.401026,79.204742 
M128.391586,38.662510 
	C130.137619,38.573181 131.883652,38.483852 133.606628,38.395702 
	C133.606628,30.642763 133.606628,23.538258 133.606628,16.252960 
	C130.629486,16.252960 127.944199,16.252960 124.740631,16.252960 
	C124.740631,21.414873 124.740631,26.166094 124.740631,31.040142 
	C120.590042,31.240242 115.515114,30.047985 113.706932,31.954300 
	C111.679031,34.092285 112.431862,39.025875 112.289482,42.755116 
	C112.102844,47.643551 115.150665,50.257694 119.546768,50.725536 
	C124.108101,51.210964 128.761246,50.833649 133.559418,50.833649 
	C133.559418,47.890678 133.559418,45.502594 133.559418,42.517094 
	C131.261398,42.517094 129.262482,42.746407 127.342720,42.454746 
	C125.286736,42.142376 123.305298,41.339417 121.291321,40.750576 
	C123.352463,40.048508 125.413597,39.346443 128.391586,38.662510 
M121.909103,99.888168 
	C130.681503,105.051331 139.678345,102.405479 142.118286,93.891457 
	C143.756119,88.176361 142.951141,82.966011 138.259506,78.916878 
	C133.861572,75.121208 128.210175,75.207893 122.423439,78.447441 
	C119.766312,77.680656 117.737198,77.095100 115.485672,76.445366 
	C115.485672,90.117706 115.485672,102.837067 115.485672,115.913643 
	C117.440872,115.771149 119.005226,115.657143 121.083107,115.505707 
	C121.083107,110.104424 121.083107,105.142082 121.909103,99.888168 
M182.886230,97.456169 
	C188.235077,103.822113 193.699051,104.487923 201.049774,100.195015 
	C203.444534,101.058052 205.324478,101.735558 207.605865,102.557732 
	C207.605865,93.421585 207.605865,85.214157 207.605865,75.525673 
	C202.376068,80.819229 198.059647,75.968796 193.420593,76.120934 
	C192.589981,76.148170 191.749100,76.171898 190.934006,76.316154 
	C181.873169,77.919724 178.319412,86.596931 182.886230,97.456169 
M79.372849,101.132637 
	C80.392578,100.290985 81.571457,99.582436 82.405350,98.585358 
	C86.733307,93.410454 87.127701,86.710335 83.522118,81.491058 
	C80.140572,76.596115 72.883179,74.680084 66.411087,76.973579 
	C60.843235,78.946640 57.654377,84.229210 58.054184,90.817383 
	C58.635471,100.396103 67.775253,105.133110 79.372849,101.132637 
M109.971184,94.641273 
	C108.059959,92.414978 106.447937,89.777962 104.139801,88.096519 
	C102.394630,86.825195 99.669800,86.986542 97.561554,86.087029 
	C96.573097,85.665298 95.374329,84.205750 95.431427,83.288788 
	C95.490150,82.345558 96.922829,80.793953 97.824295,80.742821 
	C99.652611,80.639122 101.551231,81.283310 103.377632,81.778633 
	C105.135582,82.255402 106.838989,82.933266 109.654266,83.894051 
	C106.457748,76.279106 99.655785,74.191681 93.688759,77.499550 
	C88.658066,80.288353 88.428421,86.746033 93.459007,89.517296 
	C95.733093,90.770050 98.546921,91.012825 100.913551,92.138992 
	C102.355591,92.825203 103.412132,94.321533 104.641830,95.453972 
	C103.098671,96.416420 101.634438,97.948074 99.989441,98.176186 
	C98.441986,98.390785 96.718674,97.179474 95.045502,96.688240 
	C93.252853,96.161911 91.428421,95.743828 88.586922,95.013550 
	C91.297012,101.277954 95.193695,103.463676 100.903404,102.788963 
	C105.374908,102.260567 109.505951,101.020393 109.971184,94.641273 
M165.165237,96.822182 
	C166.908539,101.507263 170.039688,103.356529 174.730042,101.956177 
	C175.825241,101.629211 176.469940,99.793365 176.604309,99.613319 
	C174.073166,97.526131 171.269196,96.354958 171.055603,94.822708 
	C170.429001,90.327271 170.832428,85.688255 170.832428,81.644806 
	C173.504227,80.173637 178.342224,82.783493 176.676224,77.088600 
	C174.730530,76.897934 172.967041,76.725128 171.014755,76.533821 
	C170.854431,73.621124 170.707031,70.943169 170.567169,68.402168 
	C163.741379,67.881691 165.488571,72.925735 164.736710,76.393082 
	C162.768860,76.660034 160.896667,76.914017 159.127716,77.153984 
	C157.809311,83.201378 163.196365,79.739754 165.135254,82.053658 
	C165.135254,86.365036 165.135254,91.153847 165.165237,96.822182 
M107.124084,50.879807 
	C107.631248,50.328140 108.571854,49.782631 108.579781,49.223877 
	C108.679901,42.171185 108.645569,35.116581 108.645569,27.847450 
	C105.362015,27.847450 102.675499,27.847450 99.905579,27.847450 
	C99.905579,35.688343 99.905579,43.167244 99.905579,50.916321 
	C102.293541,50.916321 104.266167,50.916321 107.124084,50.879807 
M221.145294,89.487793 
	C221.145294,80.106224 221.145294,70.724648 221.145294,61.154373 
	C218.959854,61.253387 217.502899,61.319397 215.858398,61.393906 
	C215.858398,74.948685 215.858398,88.283012 215.858398,101.701218 
	C217.747467,101.701218 219.287811,101.701218 221.142487,101.701218 
	C221.142487,97.733757 221.142487,94.107704 221.145294,89.487793 
M117.322891,16.999928 
	C111.434776,16.999928 105.546669,16.999928 99.460449,16.999928 
	C99.602524,19.749557 99.701881,21.672386 99.781822,23.219463 
	C104.547279,25.518801 111.064148,20.263601 113.360909,27.564646 
	C116.018417,27.564646 118.432480,27.564646 122.586304,27.564646 
	C120.781570,23.573376 119.390076,20.495995 117.322891,16.999928 
M149.469177,76.892319 
	C149.106522,85.167389 148.743866,93.442467 148.378571,101.777382 
	C150.805267,101.777382 152.205612,101.777382 154.115997,101.777382 
	C154.115997,94.092850 154.238922,86.671364 153.953873,79.265579 
	C153.919846,78.381729 151.663773,77.583397 149.469177,76.892319 
M149.332336,70.283844 
	C151.180115,69.914856 153.120239,69.751617 154.796143,68.999611 
	C155.123047,68.852928 154.868118,65.993454 154.071152,65.161987 
	C153.295197,64.352432 150.487152,64.012466 150.292480,64.379417 
	C149.443054,65.980545 149.220230,67.914108 149.332336,70.283844 
z"/>
<path fill="#859CA5" opacity="1.000000" stroke="none" 
	d="
M27.877586,79.201057 
	C31.171593,79.568840 32.293991,78.392685 31.994846,75.533264 
	C31.581568,71.582878 31.361979,67.612236 31.025606,63.207275 
	C33.859097,63.207275 36.560596,63.207275 38.954594,63.207275 
	C38.954594,69.934990 38.954594,76.513802 38.954594,83.092613 
	C38.954594,89.503326 38.954594,95.914032 38.954594,102.586426 
	C36.492081,102.586426 33.580986,102.586426 30.463146,102.586426 
	C31.050608,96.795624 31.609428,91.287132 32.209385,85.373138 
	C27.546343,85.373138 23.635597,85.373138 18.884113,85.373138 
	C19.406286,91.136581 19.917646,96.780670 20.445705,102.609055 
	C17.399710,102.609055 14.474469,102.609055 11.475269,102.609055 
	C11.475269,89.465042 11.475269,76.573013 11.475269,63.224865 
	C13.999965,63.224865 16.704088,63.224865 20.091068,63.224865 
	C19.683485,68.280121 19.278584,73.302124 18.802681,79.204742 
	C21.925224,79.204742 24.663124,79.204742 27.877586,79.201057 
z"/>
<path fill="#43B78B" opacity="1.000000" stroke="none" 
	d="
M127.933167,38.653442 
	C125.413597,39.346443 123.352463,40.048508 121.291321,40.750576 
	C123.305298,41.339417 125.286736,42.142376 127.342720,42.454746 
	C129.262482,42.746407 131.261398,42.517094 133.559418,42.517094 
	C133.559418,45.502594 133.559418,47.890678 133.559418,50.833649 
	C128.761246,50.833649 124.108101,51.210964 119.546768,50.725536 
	C115.150665,50.257694 112.102844,47.643551 112.289482,42.755116 
	C112.431862,39.025875 111.679031,34.092285 113.706932,31.954300 
	C115.515114,30.047985 120.590042,31.240242 124.740631,31.040142 
	C124.740631,26.166094 124.740631,21.414873 124.740631,16.252960 
	C127.944199,16.252960 130.629486,16.252960 133.606628,16.252960 
	C133.606628,23.538258 133.606628,30.642763 133.606628,38.395702 
	C131.883652,38.483852 130.137619,38.573181 127.933167,38.653442 
z"/>
<path fill="#31495D" opacity="1.000000" stroke="none" 
	d="
M121.496109,100.033958 
	C121.083107,105.142082 121.083107,110.104424 121.083107,115.505707 
	C119.005226,115.657143 117.440872,115.771149 115.485672,115.913643 
	C115.485672,102.837067 115.485672,90.117706 115.485672,76.445366 
	C117.737198,77.095100 119.766312,77.680656 122.423439,78.447441 
	C128.210175,75.207893 133.861572,75.121208 138.259506,78.916878 
	C142.951141,82.966011 143.756119,88.176361 142.118286,93.891457 
	C139.678345,102.405479 130.681503,105.051331 121.496109,100.033958 
M135.514465,84.142784 
	C131.952484,80.506561 127.873840,79.676376 124.550934,81.911240 
	C121.018494,84.287025 119.467514,89.646164 121.495331,93.460281 
	C123.507431,97.244843 126.810593,98.920547 131.082321,97.930687 
	C135.066284,97.007492 137.454727,92.644035 136.866486,87.613007 
	C136.754471,86.654877 136.274261,85.739784 135.514465,84.142784 
z"/>
<path fill="#2D465A" opacity="1.000000" stroke="none" 
	d="
M182.709869,97.123505 
	C178.319412,86.596931 181.873169,77.919724 190.934006,76.316154 
	C191.749100,76.171898 192.589981,76.148170 193.420593,76.120934 
	C198.059647,75.968796 202.376068,80.819229 207.605865,75.525673 
	C207.605865,85.214157 207.605865,93.421585 207.605865,102.557732 
	C205.324478,101.735558 203.444534,101.058052 201.049774,100.195015 
	C193.699051,104.487923 188.235077,103.822113 182.709869,97.123505 
M199.673553,82.592445 
	C196.225235,79.994080 192.623138,79.687599 189.294250,82.539024 
	C186.077438,85.294449 185.278412,89.036011 186.966187,92.872681 
	C188.531250,96.430374 191.271194,98.605759 195.560181,98.102486 
	C202.223618,97.320580 204.707458,89.439140 199.673553,82.592445 
z"/>
<path fill="#8399A2" opacity="1.000000" stroke="none" 
	d="
M79.037674,101.325851 
	C67.775253,105.133110 58.635471,100.396103 58.054184,90.817383 
	C57.654377,84.229210 60.843235,78.946640 66.411087,76.973579 
	C72.883179,74.680084 80.140572,76.596115 83.522118,81.491058 
	C87.127701,86.710335 86.733307,93.410454 82.405350,98.585358 
	C81.571457,99.582436 80.392578,100.290985 79.037674,101.325851 
M72.350838,81.136536 
	C71.074409,81.459763 69.742889,81.645561 68.531570,82.131187 
	C64.386993,83.792732 63.534946,87.264999 64.090637,91.168640 
	C64.664070,95.196983 67.748444,97.819221 71.257759,97.523918 
	C74.029022,97.290710 77.319969,95.000427 79.049713,92.646210 
	C81.363777,89.496742 79.966385,85.885712 77.038025,83.322418 
	C75.951370,82.371231 74.429924,81.916756 72.350838,81.136536 
z"/>
<path fill="#2F465B" opacity="1.000000" stroke="none" 
	d="
M109.974731,95.034042 
	C109.505951,101.020393 105.374908,102.260567 100.903404,102.788963 
	C95.193695,103.463676 91.297012,101.277954 88.586922,95.013550 
	C91.428421,95.743828 93.252853,96.161911 95.045502,96.688240 
	C96.718674,97.179474 98.441986,98.390785 99.989441,98.176186 
	C101.634438,97.948074 103.098671,96.416420 104.641830,95.453972 
	C103.412132,94.321533 102.355591,92.825203 100.913551,92.138992 
	C98.546921,91.012825 95.733093,90.770050 93.459007,89.517296 
	C88.428421,86.746033 88.658066,80.288353 93.688759,77.499550 
	C99.655785,74.191681 106.457748,76.279106 109.654266,83.894051 
	C106.838989,82.933266 105.135582,82.255402 103.377632,81.778633 
	C101.551231,81.283310 99.652611,80.639122 97.824295,80.742821 
	C96.922829,80.793953 95.490150,82.345558 95.431427,83.288788 
	C95.374329,84.205750 96.573097,85.665298 97.561554,86.087029 
	C99.669800,86.986542 102.394630,86.825195 104.139801,88.096519 
	C106.447937,89.777962 108.059959,92.414978 109.974731,95.034042 
z"/>
<path fill="#2F475B" opacity="1.000000" stroke="none" 
	d="
M165.150238,96.382423 
	C165.135254,91.153847 165.135254,86.365036 165.135254,82.053658 
	C163.196365,79.739754 157.809311,83.201378 159.127716,77.153984 
	C160.896667,76.914017 162.768860,76.660034 164.736710,76.393082 
	C165.488571,72.925735 163.741379,67.881691 170.567169,68.402168 
	C170.707031,70.943169 170.854431,73.621124 171.014755,76.533821 
	C172.967041,76.725128 174.730530,76.897934 176.676224,77.088600 
	C178.342224,82.783493 173.504227,80.173637 170.832428,81.644806 
	C170.832428,85.688255 170.429001,90.327271 171.055603,94.822708 
	C171.269196,96.354958 174.073166,97.526131 176.604309,99.613319 
	C176.469940,99.793365 175.825241,101.629211 174.730042,101.956177 
	C170.039688,103.356529 166.908539,101.507263 165.150238,96.382423 
z"/>
<path fill="#2B8F79" opacity="1.000000" stroke="none" 
	d="
M106.681442,50.898064 
	C104.266167,50.916321 102.293541,50.916321 99.905579,50.916321 
	C99.905579,43.167244 99.905579,35.688343 99.905579,27.847450 
	C102.675499,27.847450 105.362015,27.847450 108.645569,27.847450 
	C108.645569,35.116581 108.679901,42.171185 108.579781,49.223877 
	C108.571854,49.782631 107.631248,50.328140 106.681442,50.898064 
z"/>
<path fill="#264057" opacity="1.000000" stroke="none" 
	d="
M221.143890,89.984726 
	C221.142487,94.107704 221.142487,97.733757 221.142487,101.701218 
	C219.287811,101.701218 217.747467,101.701218 215.858398,101.701218 
	C215.858398,88.283012 215.858398,74.948685 215.858398,61.393906 
	C217.502899,61.319397 218.959854,61.253387 221.145294,61.154373 
	C221.145294,70.724648 221.145294,80.106224 221.143890,89.984726 
z"/>
<path fill="#7E969E" opacity="1.000000" stroke="none" 
	d="
M52.923950,102.701180 
	C50.154800,102.715492 46.212917,104.500198 47.458080,98.444298 
	C47.950413,97.840500 48.154480,97.681961 48.358547,97.523430 
	C48.037865,97.323227 47.717186,97.123016 47.396507,96.922806 
	C47.291451,86.936264 47.186390,76.949730 47.469696,66.473297 
	C49.745430,65.690262 51.632805,65.397110 53.520180,65.103958 
	C53.477173,76.621788 53.434166,88.139626 53.269909,100.450653 
	C53.073757,101.729622 52.998856,102.215401 52.923950,102.701180 
z"/>
<path fill="#22597A" opacity="1.000000" stroke="none" 
	d="
M117.660736,17.209270 
	C119.390076,20.495995 120.781570,23.573376 122.586304,27.564646 
	C118.432480,27.564646 116.018417,27.564646 113.360909,27.564646 
	C111.064148,20.263601 104.547279,25.518801 99.781822,23.219463 
	C99.701881,21.672386 99.602524,19.749557 99.460449,16.999928 
	C105.546669,16.999928 111.434776,16.999928 117.660736,17.209270 
z"/>
<path fill="#233D53" opacity="1.000000" stroke="none" 
	d="
M149.953430,76.818871 
	C151.663773,77.583397 153.919846,78.381729 153.953873,79.265579 
	C154.238922,86.671364 154.115997,94.092850 154.115997,101.777382 
	C152.205612,101.777382 150.805267,101.777382 148.378571,101.777382 
	C148.743866,93.442467 149.106522,85.167389 149.953430,76.818871 
z"/>
<path fill="#99A9B0" opacity="1.000000" stroke="none" 
	d="
M53.673798,64.668953 
	C51.632805,65.397110 49.745430,65.690262 47.489433,66.007141 
	C46.304161,63.891857 45.487514,61.752850 44.519928,59.218491 
	C47.639347,59.218491 50.621937,59.218491 53.827419,59.218491 
	C53.827419,61.013676 53.827419,62.623814 53.673798,64.668953 
z"/>
<path fill="#2F4658" opacity="1.000000" stroke="none" 
	d="
M149.051117,70.005402 
	C149.220230,67.914108 149.443054,65.980545 150.292480,64.379417 
	C150.487152,64.012466 153.295197,64.352432 154.071152,65.161987 
	C154.868118,65.993454 155.123047,68.852928 154.796143,68.999611 
	C153.120239,69.751617 151.180115,69.914856 149.051117,70.005402 
z"/>
<path fill="#99A9B0" opacity="1.000000" stroke="none" 
	d="
M47.306889,97.206177 
	C47.717186,97.123016 48.037865,97.323227 48.358547,97.523430 
	C48.154480,97.681961 47.950413,97.840500 47.543461,98.035034 
	C47.299473,97.877213 47.258373,97.683380 47.306889,97.206177 
z"/>
<path fill="#99A9B0" opacity="1.000000" stroke="none" 
	d="
M53.215332,102.667526 
	C52.998856,102.215401 53.073757,101.729622 53.268623,100.890297 
	C53.427959,101.235786 53.467335,101.934830 53.215332,102.667526 
z"/>
<path fill="#F9FAFA" opacity="1.000000" stroke="none" 
	d="
M135.739197,84.473808 
	C136.274261,85.739784 136.754471,86.654877 136.866486,87.613007 
	C137.454727,92.644035 135.066284,97.007492 131.082321,97.930687 
	C126.810593,98.920547 123.507431,97.244843 121.495331,93.460281 
	C119.467514,89.646164 121.018494,84.287025 124.550934,81.911240 
	C127.873840,79.676376 131.952484,80.506561 135.739197,84.473808 
z"/>
<path fill="#F8F9F9" opacity="1.000000" stroke="none" 
	d="
M199.947174,82.877533 
	C204.707458,89.439140 202.223618,97.320580 195.560181,98.102486 
	C191.271194,98.605759 188.531250,96.430374 186.966187,92.872681 
	C185.278412,89.036011 186.077438,85.294449 189.294250,82.539024 
	C192.623138,79.687599 196.225235,79.994080 199.947174,82.877533 
z"/>
<path fill="#FBFCFC" opacity="1.000000" stroke="none" 
	d="
M72.728798,81.186150 
	C74.429924,81.916756 75.951370,82.371231 77.038025,83.322418 
	C79.966385,85.885712 81.363777,89.496742 79.049713,92.646210 
	C77.319969,95.000427 74.029022,97.290710 71.257759,97.523918 
	C67.748444,97.819221 64.664070,95.196983 64.090637,91.168640 
	C63.534946,87.264999 64.386993,83.792732 68.531570,82.131187 
	C69.742889,81.645561 71.074409,81.459763 72.728798,81.186150 
z"/>
</svg>